<svg width="170" height="13" viewBox="0 0 170 13" fill="none" xmlns="http://www.w3.org/2000/svg">
<line y1="6" x2="60" y2="6" stroke="#AFA8A8"/>
<path d="M82.16 12.224C81.0933 12.224 80.144 11.9867 79.312 11.512C78.48 11.032 77.8267 10.3573 77.352 9.488C76.8773 8.61333 76.64 7.584 76.64 6.4C76.64 5.216 76.8773 4.18933 77.352 3.32C77.8267 2.44533 78.48 1.77067 79.312 1.296C80.144 0.815999 81.0933 0.575999 82.16 0.575999C83.2267 0.575999 84.176 0.815999 85.008 1.296C85.84 1.77067 86.4933 2.44533 86.968 3.32C87.4427 4.18933 87.68 5.216 87.68 6.4C87.68 7.584 87.4427 8.61333 86.968 9.488C86.4933 10.3573 85.84 11.032 85.008 11.512C84.176 11.9867 83.2267 12.224 82.16 12.224ZM82.16 10.752C83.0187 10.752 83.736 10.56 84.312 10.176C84.888 9.78667 85.32 9.264 85.608 8.608C85.9013 7.94667 86.048 7.21067 86.048 6.4C86.048 5.58933 85.9013 4.856 85.608 4.2C85.32 3.53867 84.888 3.016 84.312 2.632C83.736 2.24267 83.0187 2.048 82.16 2.048C81.3013 2.048 80.584 2.24267 80.008 2.632C79.432 3.016 78.9973 3.53867 78.704 4.2C78.416 4.856 78.272 5.58933 78.272 6.4C78.272 7.21067 78.416 7.94667 78.704 8.608C78.9973 9.264 79.432 9.78667 80.008 10.176C80.584 10.56 81.3013 10.752 82.16 10.752ZM89.1791 12V4.16H90.3631L90.5391 5.456C90.9391 4.96 91.3205 4.59467 91.6831 4.36C92.0511 4.12 92.4431 4 92.8591 4C92.9925 4 93.1151 4.016 93.2271 4.048L93.0831 5.632C93.0138 5.616 92.9391 5.60533 92.8591 5.6C92.7845 5.58933 92.6991 5.584 92.6031 5.584C92.1871 5.584 91.8031 5.67733 91.4511 5.864C91.1045 6.04533 90.8591 6.24533 90.7151 6.464V12H89.1791Z" fill="#AFA8A8"/>
<line x1="110" y1="6" x2="170" y2="6" stroke="#AFA8A8"/>
</svg>
